HIERARCHY
ROOT Hips
{
    OFFSET   0.000000   0.000000   0.000000
    CHANNELS 6 Xposition Yposition Zposition Zrotation Xrotation Yrotation
    JOINT Chest
    {
        OFFSET   0.000000   8.007230   0.000000
        CHANNELS 3 Zrotation Xrotation Yrotation
        JOINT Chest2
        {
            OFFSET   0.000000  22.077100   0.000000
            CHANNELS 3 Zrotation Xrotation Yrotation
            JOINT Neck
            {
                OFFSET   0.000000  23.255100   0.000000
                CHANNELS 3 Zrotation Xrotation Yrotation
                JOINT Head
                {
                    OFFSET   0.000000  14.370100   1.956600
                    CHANNELS 3 Zrotation Xrotation Yrotation
                    End Site
                    {
                        OFFSET   0.000000  19.566000   0.000000
                    }
                }
            }
            JOINT LeftCollar
            {
                OFFSET   3.911900  19.017000  -0.467063
                CHANNELS 3 Zrotation Xrotation Yrotation
                JOINT LeftShoulder
                {
                    OFFSET  10.383700   0.000000   0.000000
                    CHANNELS 3 Zrotation Xrotation Yrotation
                    JOINT LeftElbow
                    {
                        OFFSET  26.662100   0.001193   0.000980
                        CHANNELS 3 Zrotation Xrotation Yrotation
                        JOINT LeftWrist
                        {
                            OFFSET  28.869000  -0.000059  -0.000082
                            CHANNELS 3 Zrotation Xrotation Yrotation
                            JOINT LeftFinger0
                            {
                                OFFSET   2.044650  -2.323450   3.252850
                                CHANNELS 3 Zrotation Xrotation Yrotation
                                JOINT LeftFinger01
                                {
                                    OFFSET   3.088130   0.000000   0.000000
                                    CHANNELS 3 Zrotation Xrotation Yrotation
                                    JOINT LeftFinger02
                                    {
                                        OFFSET   2.639460   0.000000   0.000000
                                        CHANNELS 3 Zrotation Xrotation Yrotation
                                        End Site
                                        {
                                            OFFSET   2.582190   0.000000   0.000000
                                        }
                                    }
                                }
                            }
                            JOINT LeftFinger1
                            {
                                OFFSET   8.364480   0.000000   3.252850
                                CHANNELS 3 Zrotation Xrotation Yrotation
                                JOINT LeftFinger11
                                {
                                    OFFSET   4.646930   0.000000   0.000000
                                    CHANNELS 3 Zrotation Xrotation Yrotation
                                    JOINT LeftFinger12
                                    {
                                        OFFSET   2.323470   0.000000   0.000000
                                        CHANNELS 3 Zrotation Xrotation Yrotation
                                        End Site
                                        {
                                            OFFSET   2.273050   0.000000   0.000000
                                        }
                                    }
                                }
                            }
                            JOINT LeftFinger2
                            {
                                OFFSET   8.364490   0.000016   1.078090
                                CHANNELS 3 Zrotation Xrotation Yrotation
                                JOINT LeftFinger21
                                {
                                    OFFSET   5.111610   0.000000   0.000000
                                    CHANNELS 3 Zrotation Xrotation Yrotation
                                    JOINT LeftFinger22
                                    {
                                        OFFSET   2.788150   0.000016   0.000000
                                        CHANNELS 3 Zrotation Xrotation Yrotation
                                        End Site
                                        {
                                            OFFSET   2.727660   0.000000   0.000000
                                        }
                                    }
                                }
                            }
                            JOINT LeftFinger3
                            {
                                OFFSET   7.899780   0.000015  -1.078090
                                CHANNELS 3 Zrotation Xrotation Yrotation
                                JOINT LeftFinger31
                                {
                                    OFFSET   4.646930   0.000000   0.000000
                                    CHANNELS 3 Zrotation Xrotation Yrotation
                                    JOINT LeftFinger32
                                    {
                                        OFFSET   2.323470   0.000000   0.000000
                                        CHANNELS 3 Zrotation Xrotation Yrotation
                                        End Site
                                        {
                                            OFFSET   2.273050   0.000000   0.000000
                                        }
                                    }
                                }
                            }
                            JOINT LeftFinger4
                            {
                                OFFSET   7.435090   0.000000  -3.252850
                                CHANNELS 3 Zrotation Xrotation Yrotation
                                JOINT LeftFinger41
                                {
                                    OFFSET   3.717550   0.000000   0.000000
                                    CHANNELS 3 Zrotation Xrotation Yrotation
                                    JOINT LeftFinger42
                                    {
                                        OFFSET   1.858770   0.000000   0.000000
                                        CHANNELS 3 Zrotation Xrotation Yrotation
                                        End Site
                                        {
                                            OFFSET   1.818440   0.000000   0.000000
                                        }
                                    }
                                }
                            }
                        }
                    }
                }
            }
            JOINT RightCollar
            {
                OFFSET  -3.911910  19.017000  -0.467062
                CHANNELS 3 Zrotation Xrotation Yrotation
                JOINT RightShoulder
                {
                    OFFSET -10.383700   0.000014   0.000000
                    CHANNELS 3 Zrotation Xrotation Yrotation
                    JOINT RightElbow
                    {
                        OFFSET -26.662100   0.001225   0.001091
                        CHANNELS 3 Zrotation Xrotation Yrotation
                        JOINT RightWrist
                        {
                            OFFSET -28.869000  -0.000020  -0.000085
                            CHANNELS 3 Zrotation Xrotation Yrotation
                            JOINT RightFinger0
                            {
                                OFFSET  -2.044650  -2.323490   3.252850
                                CHANNELS 3 Zrotation Xrotation Yrotation
                                JOINT RightFinger01
                                {
                                    OFFSET  -3.088130   0.000000   0.000000
                                    CHANNELS 3 Zrotation Xrotation Yrotation
                                    JOINT RightFinger02
                                    {
                                        OFFSET  -2.639460   0.000000   0.000000
                                        CHANNELS 3 Zrotation Xrotation Yrotation
                                        End Site
                                        {
                                            OFFSET  -2.582190   0.000000   0.000000
                                        }
                                    }
                                }
                            }
                            JOINT RightFinger1
                            {
                                OFFSET  -8.364480   0.000000   3.252850
                                CHANNELS 3 Zrotation Xrotation Yrotation
                                JOINT RightFinger11
                                {
                                    OFFSET  -4.646930   0.000000   0.000000
                                    CHANNELS 3 Zrotation Xrotation Yrotation
                                    JOINT RightFinger12
                                    {
                                        OFFSET  -2.323470   0.000000   0.000000
                                        CHANNELS 3 Zrotation Xrotation Yrotation
                                        End Site
                                        {
                                            OFFSET  -2.273050   0.000000   0.000000
                                        }
                                    }
                                }
                            }
                            JOINT RightFinger2
                            {
                                OFFSET  -8.364480   0.000000   1.078090
                                CHANNELS 3 Zrotation Xrotation Yrotation
                                JOINT RightFinger21
                                {
                                    OFFSET  -5.111620   0.000000   0.000000
                                    CHANNELS 3 Zrotation Xrotation Yrotation
                                    JOINT RightFinger22
                                    {
                                        OFFSET  -2.788160   0.000000   0.000000
                                        CHANNELS 3 Zrotation Xrotation Yrotation
                                        End Site
                                        {
                                            OFFSET  -2.727660   0.000000   0.000000
                                        }
                                    }
                                }
                            }
                            JOINT RightFinger3
                            {
                                OFFSET  -7.899780   0.000000  -1.078090
                                CHANNELS 3 Zrotation Xrotation Yrotation
                                JOINT RightFinger31
                                {
                                    OFFSET  -4.646930   0.000000   0.000000
                                    CHANNELS 3 Zrotation Xrotation Yrotation
                                    JOINT RightFinger32
                                    {
                                        OFFSET  -2.323470   0.000000   0.000000
                                        CHANNELS 3 Zrotation Xrotation Yrotation
                                        End Site
                                        {
                                            OFFSET  -2.273050   0.000000   0.000000
                                        }
                                    }
                                }
                            }
                            JOINT RightFinger4
                            {
                                OFFSET  -7.435090   0.000000  -3.252850
                                CHANNELS 3 Zrotation Xrotation Yrotation
                                JOINT RightFinger41
                                {
                                    OFFSET  -3.717550   0.000000   0.000000
                                    CHANNELS 3 Zrotation Xrotation Yrotation
                                    JOINT RightFinger42
                                    {
                                        OFFSET  -1.858760   0.000000   0.000000
                                        CHANNELS 3 Zrotation Xrotation Yrotation
                                        End Site
                                        {
                                            OFFSET  -1.818440   0.000000   0.000000
                                        }
                                    }
                                }
                            }
                        }
                    }
                }
            }
        }
    }
    JOINT LeftHip
    {
        OFFSET   9.783030   0.000000   0.000000
        CHANNELS 3 Zrotation Xrotation Yrotation
        JOINT LeftKnee
        {
            OFFSET   0.000063 -41.789100   0.000608
            CHANNELS 3 Zrotation Xrotation Yrotation
            JOINT LeftAnkle
            {
                OFFSET   0.000048 -41.133200  -0.000184
                CHANNELS 3 Zrotation Xrotation Yrotation
                JOINT LeftToe
                {
                    OFFSET   0.000000  -6.358960  14.674500
                    CHANNELS 3 Zrotation Xrotation Yrotation
                    End Site
                    {
                        OFFSET   0.000000   0.000000   3.913200
                    }
                }
            }
        }
    }
    JOINT RightHip
    {
        OFFSET  -9.783030   0.000000   0.000000
        CHANNELS 3 Zrotation Xrotation Yrotation
        JOINT RightKnee
        {
            OFFSET   0.000071 -41.789100   0.001239
            CHANNELS 3 Zrotation Xrotation Yrotation
            JOINT RightAnkle
            {
                OFFSET   0.000037 -41.133200  -0.000166
                CHANNELS 3 Zrotation Xrotation Yrotation
                JOINT RightToe
                {
                    OFFSET   0.000000  -6.358960  14.674500
                    CHANNELS 3 Zrotation Xrotation Yrotation
                    End Site
                    {
                        OFFSET   0.000000   0.000000   3.913200
                    }
                }
            }
        }
    }
}
MOTION
Frames: 5
Frame Time:   0.016667
  0.779380  89.430500  -0.587632  -2.516090  -6.868120  -0.620026   1.478020   1.913490   0.016283   2.957980   3.826740  -0.016868   0.536511   2.039340  -0.025114   0.883020   4.133690  -2.261890  -2.350580   0.064002   0.468949 -79.536600  12.847000   3.815080  -1.050690  -2.745530 -15.218000  13.756600  -7.716960   5.910560  38.345900  34.363700 -73.379000 -29.483200   0.005574   0.003214  -9.741580   0.006330   0.005716 -34.592500  11.089700 -15.591300 -29.548300  -0.000238   0.001297 -20.683800   0.001209  -0.008069 -28.643500   2.604590  -4.754970 -40.454300   0.003008   0.000640 -26.942600   0.005323   0.000715 -28.603500   2.601720  -4.756530 -39.535200  -0.002989  -0.007683 -26.330400   0.000810  -0.006555 -32.596500   0.769249  -1.191820 -48.907000   0.001985  -0.002288 -32.572100   0.005333  -0.004653   5.932770  -0.017661   3.382710  73.263700   6.762850  -9.711460  -0.607685  -8.789780  13.403400 -14.097200   2.180410  -1.649700 -38.551000  28.538600  68.785800  24.380800   0.000613  -0.000932   7.190380   0.000365  -0.014020  36.405700  10.178900  13.476700  30.773300  -0.005382  -0.001364  21.541300  -0.004533  -0.002405  29.884000   2.485020   4.314820  44.966700  -0.004059  -0.002865  29.947800  -0.000410  -0.000771  28.779700   1.938040   3.523280  43.213100  -0.001550  -0.002351  28.780000  -0.006248  -0.004791  43.074000  -2.024960  -2.164430  64.668500  -0.000518  -0.004350  43.069200  -0.002016  -0.004021   2.276520  11.135400   2.072560   1.785540   0.135125   7.666680  -2.680780  -4.899450   0.108687   0.000000   0.000000   0.000000   2.904880  10.182300  -7.943440   0.203121   0.477689  -9.656470  -0.796659  -4.532790  -0.390304  -0.000000   0.000000   0.000000
  0.774872  89.430300  -0.607645  -2.521350  -6.888050  -0.625265   1.491740   1.920390   0.002065   2.985940   3.840160  -0.045966   0.538861   2.078740  -0.024948   0.890277   4.213750  -2.285690  -2.371390   0.088419   0.469256 -79.557700  12.921100   3.812580  -1.074090  -2.783000 -15.218400  13.733700  -7.700260   5.897490  38.352700  34.381400 -73.394400 -29.481400   0.005573   0.003190  -9.740670   0.006333   0.005853 -34.584000  11.089500 -15.594900 -29.541700  -0.000239   0.001303 -20.679200   0.001205  -0.008069 -28.645000   2.596180  -4.738710 -40.429100   0.003004   0.000640 -26.925800   0.005321   0.000712 -28.605000   2.593280  -4.740300 -39.501100  -0.002984  -0.007676 -26.307700   0.000808  -0.006555 -32.583300   0.769246  -1.196660 -48.887000   0.001984  -0.002291 -32.558800   0.005333  -0.004654   5.934650  -0.050850   3.428340  73.134800   6.707590  -9.668030  -0.690986  -8.881770  13.435300 -13.975700   2.346430  -1.792150 -38.539600  28.744400  68.856000  24.587800   0.000594  -0.000918   7.293890   0.000372  -0.014003  36.326100  10.191100  13.529900  30.713500  -0.005381  -0.001327  21.499400  -0.004531  -0.002406  29.824200   2.491750   4.336810  44.878300  -0.004058  -0.002848  29.888900  -0.000397  -0.000775  28.756100   1.952690   3.552960  43.056700  -0.001535  -0.002315  28.675800  -0.006240  -0.004789  43.004600  -2.002500  -2.145610  64.563400  -0.000495  -0.004327  42.999200  -0.002002  -0.004021   2.290250  11.136300   2.072110   1.778840   0.157899   7.667120  -2.683280  -4.907710   0.109071   0.000000   0.000000   0.000000   2.905720  10.183000  -7.947990   0.203610   0.497404  -9.648440  -0.794612  -4.530380  -0.388236  -0.000000   0.000000  -0.000000
  0.765891  89.430100  -0.642811  -2.531240  -6.922930  -0.641338   1.510940   1.938440  -0.017992   3.025090   3.875730  -0.087230   0.555256   2.139590  -0.024784   0.916451   4.337320  -2.348980  -2.392210   0.112835   0.469563 -79.586500  13.049700   3.799910  -1.113340  -2.847010 -15.219100  13.697700  -7.672620   5.876200  38.370500  34.406400 -73.416300 -29.475200   0.005568   0.003166  -9.737580   0.006336   0.006048 -34.569200  11.089200 -15.601200 -29.530200  -0.000241   0.001312 -20.671100   0.001197  -0.008069 -28.646600   2.586620  -4.722440 -40.387900   0.002997   0.000641 -26.898300   0.005316   0.000704 -28.606600   2.583630  -4.724070 -39.448000  -0.002972  -0.007658 -26.272400   0.000804  -0.006555 -32.562200   0.769243  -1.204360 -48.855300   0.001980  -0.002297 -32.537700   0.005334  -0.004660   5.938640  -0.117570   3.489470  72.918200   6.596730  -9.582100  -0.859661  -8.971890  13.517500 -13.744100   2.728950  -2.024820 -38.524400  29.014800  69.021100  24.884600   0.000559  -0.000880   7.442310   0.000382  -0.013968  36.187900  10.222100  13.635100  30.611500  -0.005379  -0.001245  21.428000  -0.004529  -0.002407  29.718400   2.507830   4.383220  44.722200  -0.004057  -0.002810  29.785000  -0.000371  -0.000786  28.730800   1.980710   3.607810  42.785400  -0.001506  -0.002232  28.495100  -0.006218  -0.004782  42.888800  -1.965010  -2.114110  64.387900  -0.000451  -0.004275  42.882400  -0.001972  -0.004020   2.312010  11.142400   2.071690   1.767500   0.189999   7.670160  -2.686570  -4.915960   0.111749   0.000000   0.000000   0.000000   2.907670  10.188300  -7.955180   0.204031   0.517130  -9.633470  -0.791955  -4.518180  -0.379257  -0.000000   0.000000  -0.000000
  0.755556  89.431300  -0.674608  -2.540860  -6.954080  -0.667163   1.519100   1.966580  -0.027124   3.041820   3.931770  -0.106789   0.594045   2.178550  -0.024826   0.978202   4.416160  -2.446380  -2.391570   0.109981   0.456928 -79.596400  13.166100   3.770870  -1.145410  -2.903830 -15.219900  13.671700  -7.647280   5.859750  38.387300  34.415100 -73.426500 -29.460500   0.005561   0.003169  -9.730290   0.006336   0.006140 -34.555800  11.089000 -15.606900 -29.519800  -0.000242   0.001314 -20.663900   0.001191  -0.012729 -28.646500   2.585410  -4.722520 -40.356200   0.002988   0.000642 -26.877200   0.005308   0.000694 -28.606800   2.582350  -4.724160 -39.414300  -0.002952  -0.007632 -26.249900   0.000801  -0.006551 -32.547900   0.771618  -1.209540 -48.834000   0.001975  -0.002305 -32.523500   0.005333  -0.004669   5.949480  -0.195307   3.507560  72.741700   6.467310  -9.487400  -1.049020  -8.940370  13.636100 -13.509100   3.268430  -2.200380 -38.484100  29.137100  69.199900  25.036700   0.000521  -0.000813   7.518370   0.000387  -0.013923  36.074900  10.266400  13.745100  30.531900  -0.005381  -0.001129  21.372300  -0.004531  -0.002407  29.619200   2.531060   4.441290  44.576600  -0.004060  -0.002757  29.688000  -0.000336  -0.000802  28.726900   2.011580   3.664300  42.543600  -0.001470  -0.002110  28.334100  -0.006182  -0.004775  42.795100  -1.934650  -2.088450  64.245800  -0.000393  -0.004200  42.787800  -0.001931  -0.004021   2.327240  11.155200   2.071780   1.757620   0.204528   7.681870  -2.687180  -4.914400   0.121471  -0.000000   0.000000   0.000000   2.914750  10.211600  -7.961320   0.203842   0.493562  -9.618550  -0.797612  -4.488080  -0.360998   0.000000   0.000000   0.000000
  0.743594  89.434000  -0.708857  -2.553180  -6.987670  -0.706708   1.521790   2.002700  -0.030420   3.047450   4.003930  -0.114188   0.652103   2.211080  -0.025120   1.076020   4.481720  -2.577870  -2.387300   0.100238   0.427745 -79.597900  13.282800   3.733560  -1.177470  -2.957880 -15.220900  13.652100  -7.629440   5.844710  38.398000  34.421600 -73.431300 -29.448200   0.005545   0.003172  -9.724100   0.006336   0.006174 -34.542100  11.088700 -15.612700 -29.509200  -0.000244   0.001319 -20.656400   0.001185  -0.020115 -28.646000   2.585090  -4.723120 -40.325700   0.002977   0.000644 -26.856900   0.005297   0.000680 -28.606800   2.582010  -4.724800 -39.383700  -0.002926  -0.007597 -26.229500   0.000796  -0.006544 -32.533800   0.775545  -1.214660 -48.813000   0.001967  -0.002316 -32.509500   0.005332  -0.004682   5.965100  -0.285944   3.510160  72.562000   6.317920  -9.371490  -1.278000  -8.834870  13.807200 -13.216600   3.912560  -2.371880 -38.432200  29.241600  69.358900  25.099100   0.000481  -0.000742   7.549530   0.000393  -0.013874  35.936700  10.329800  13.893200  30.436200  -0.005383  -0.001002  21.305300  -0.004533  -0.002407  29.515900   2.559820   4.510170  44.425700  -0.004063  -0.002699  29.587500  -0.000312  -0.000823  28.722600   2.044960   3.724690  42.293300  -0.001438  -0.001973  28.167300  -0.006138  -0.004766  42.702600  -1.904730  -2.062980  64.105500  -0.000356  -0.004114  42.694300  -0.001890  -0.004021   2.340910  11.177300   2.071970   1.748360   0.209726   7.701650  -2.686020  -4.907800   0.140331   0.000000   0.000000   0.000000   2.925280  10.237900  -7.965020   0.203643   0.469995  -9.601040  -0.806898  -4.454390  -0.335015  -0.000000   0.000000  -0.000000
